<svg xmlns="http://www.w3.org/2000/svg" xmlns:xlink="http://www.w3.org/1999/xlink" width="500" zoomAndPan="magnify" viewBox="0 0 375 374.999991" height="500" preserveAspectRatio="xMidYMid meet" version="1.0"><defs><g/><clipPath id="d3983faa1a"><path d="M 45.140625 282 L 49 282 L 49 286.515625 L 45.140625 286.515625 Z M 45.140625 282 " clip-rule="nonzero"/></clipPath><clipPath id="eef3567af2"><path d="M 177 114 L 249.890625 114 L 249.890625 192 L 177 192 Z M 177 114 " clip-rule="nonzero"/></clipPath><clipPath id="ba9378d987"><path d="M 182 20.265625 L 204 20.265625 L 204 80 L 182 80 Z M 182 20.265625 " clip-rule="nonzero"/></clipPath></defs><rect x="-37.5" width="450" fill="#ffffff" y="-37.499999" height="449.999989" fill-opacity="1"/><rect x="-37.5" width="450" fill="#ffffff" y="-37.499999" height="449.999989" fill-opacity="1"/><rect x="-37.5" width="450" fill="#ffffff" y="-37.499999" height="449.999989" fill-opacity="1"/><path fill="#231f20" d="M 168.925781 143.492188 C 169.894531 142.554688 170.863281 141.640625 171.832031 140.742188 C 171.746094 140.625 171.660156 140.503906 171.574219 140.382812 C 170.691406 141.136719 169.703125 142.007812 168.605469 143.023438 C 168.613281 143.035156 168.625 143.050781 168.632812 143.066406 L 168.925781 143.492188 " fill-opacity="1" fill-rule="nonzero"/><path fill="#231f20" d="M 171.113281 141.96875 C 170.988281 141.804688 170.859375 141.640625 170.734375 141.472656 C 169.8125 142.105469 169.324219 142.402344 169.324219 142.402344 C 169.902344 142.285156 170.5 142.140625 171.113281 141.96875 " fill-opacity="1" fill-rule="nonzero"/><g clip-path="url(#d3983faa1a)"><path fill="#231f20" d="M 46.925781 282.265625 C 46.363281 283.625 45.796875 285.003906 45.230469 286.402344 C 45.683594 286.441406 46.140625 286.480469 46.597656 286.519531 C 47.148438 285.132812 47.703125 283.742188 48.261719 282.347656 C 47.816406 282.324219 47.371094 282.292969 46.925781 282.265625 " fill-opacity="1" fill-rule="nonzero"/></g><g clip-path="url(#eef3567af2)"><path fill="#231f20" d="M 249.574219 162.230469 L 249.605469 162.003906 L 249.65625 161.550781 C 249.675781 161.394531 249.695312 161.242188 249.710938 161.09375 L 249.738281 160.636719 L 249.769531 160.179688 C 249.777344 160.027344 249.792969 159.875 249.789062 159.722656 L 249.800781 158.816406 C 249.804688 158.742188 249.804688 158.664062 249.804688 158.585938 L 249.796875 158.363281 L 249.777344 157.910156 C 249.765625 157.609375 249.757812 157.308594 249.730469 157.011719 L 249.648438 156.121094 C 249.636719 155.96875 249.613281 155.824219 249.59375 155.675781 L 249.535156 155.234375 C 249.460938 154.640625 249.34375 154.066406 249.238281 153.484375 L 249.199219 153.269531 L 249.148438 153.054688 L 249.050781 152.625 C 248.984375 152.34375 248.921875 152.054688 248.851562 151.773438 L 248.617188 150.929688 L 248.503906 150.511719 C 248.460938 150.371094 248.417969 150.234375 248.375 150.097656 C 248.195312 149.546875 248.03125 148.992188 247.828125 148.457031 L 247.535156 147.648438 C 247.433594 147.378906 247.324219 147.117188 247.21875 146.851562 C 246.371094 144.734375 245.375 142.707031 244.292969 140.75 L 243.886719 140.019531 L 243.785156 139.835938 L 243.675781 139.660156 L 243.464844 139.300781 L 243.039062 138.582031 L 242.824219 138.226562 L 242.605469 137.875 C 242.308594 137.40625 242.019531 136.933594 241.71875 136.472656 C 241.414062 136.011719 241.109375 135.550781 240.804688 135.09375 C 239.566406 133.277344 238.277344 131.507812 236.941406 129.789062 C 236.609375 129.359375 236.269531 128.941406 235.929688 128.515625 L 235.425781 127.878906 L 234.90625 127.25 C 234.5625 126.835938 234.21875 126.417969 233.875 126 C 233.523438 125.59375 233.171875 125.183594 232.820312 124.773438 L 232.292969 124.160156 L 231.757812 123.558594 C 231.402344 123.15625 231.046875 122.753906 230.6875 122.355469 C 230.332031 121.953125 229.964844 121.5625 229.605469 121.167969 L 229.0625 120.578125 L 228.789062 120.28125 L 228.511719 119.988281 C 226.851562 118.21875 225.160156 116.492188 223.449219 114.796875 C 222.753906 116.210938 222.050781 117.636719 221.335938 119.070312 C 221.800781 119.554688 222.265625 120.042969 222.730469 120.535156 L 223.332031 121.171875 L 223.636719 121.492188 L 223.933594 121.816406 C 224.332031 122.25 224.726562 122.683594 225.125 123.113281 L 225.425781 123.4375 L 225.714844 123.765625 L 226.304688 124.425781 C 226.695312 124.863281 227.089844 125.300781 227.472656 125.75 C 230.5625 129.296875 233.523438 132.984375 236.167969 136.878906 C 237.492188 138.824219 238.738281 140.816406 239.863281 142.867188 C 240.988281 144.917969 241.996094 147.019531 242.8125 149.171875 C 242.867188 149.304688 242.914062 149.441406 242.960938 149.578125 L 243.105469 149.984375 L 243.246094 150.390625 L 243.320312 150.59375 L 243.382812 150.796875 C 243.550781 151.34375 243.730469 151.886719 243.867188 152.433594 L 243.976562 152.847656 C 244.015625 152.984375 244.054688 153.121094 244.082031 153.257812 L 244.265625 154.082031 L 244.3125 154.289062 L 244.351562 154.496094 L 244.421875 154.910156 L 244.496094 155.324219 L 244.515625 155.429688 L 244.53125 155.535156 L 244.554688 155.738281 L 244.664062 156.570312 L 244.730469 157.394531 L 244.75 157.601562 C 244.753906 157.671875 244.753906 157.738281 244.757812 157.808594 L 244.773438 158.21875 L 244.789062 158.632812 C 244.789062 158.769531 244.78125 158.90625 244.78125 159.042969 L 244.773438 159.453125 L 244.769531 159.65625 C 244.769531 159.722656 244.761719 159.792969 244.757812 159.859375 L 244.703125 160.671875 L 244.601562 161.476562 C 244.589844 161.613281 244.558594 161.742188 244.539062 161.875 L 244.464844 162.273438 C 244.054688 164.382812 243.257812 166.398438 242.0625 168.214844 C 241.46875 169.121094 240.785156 169.988281 240.03125 170.804688 C 239.839844 171.003906 239.65625 171.214844 239.453125 171.40625 L 239.152344 171.703125 C 239.050781 171.800781 238.953125 171.898438 238.847656 171.996094 L 238.222656 172.5625 L 237.566406 173.109375 C 236.683594 173.828125 235.746094 174.5 234.769531 175.128906 L 234.03125 175.59375 C 233.78125 175.746094 233.527344 175.890625 233.273438 176.039062 C 233.023438 176.191406 232.761719 176.328125 232.503906 176.46875 C 232.246094 176.613281 231.988281 176.757812 231.722656 176.890625 C 230.679688 177.441406 229.597656 177.941406 228.5 178.421875 C 227.402344 178.902344 226.277344 179.335938 225.144531 179.753906 C 223.167969 180.46875 221.15625 181.097656 219.121094 181.660156 C 217.082031 182.21875 215.023438 182.707031 212.953125 183.144531 C 208.804688 184.019531 204.613281 184.675781 200.414062 185.1875 C 193.894531 185.980469 187.359375 186.429688 180.851562 186.65625 C 179.628906 188.273438 178.398438 189.855469 177.164062 191.40625 C 177.726562 191.402344 178.292969 191.394531 178.855469 191.386719 C 181.261719 191.355469 183.671875 191.289062 186.09375 191.183594 C 188.511719 191.085938 190.941406 190.945312 193.371094 190.765625 C 195.808594 190.585938 198.246094 190.367188 200.691406 190.09375 C 203.136719 189.820312 205.585938 189.5 208.035156 189.109375 C 210.488281 188.71875 212.941406 188.277344 215.390625 187.738281 L 216.308594 187.539062 L 217.226562 187.324219 L 217.683594 187.214844 L 218.144531 187.105469 L 219.0625 186.875 L 219.976562 186.636719 L 220.433594 186.515625 L 220.890625 186.390625 L 221.804688 186.136719 L 222.71875 185.867188 L 223.175781 185.730469 L 223.628906 185.585938 L 224.539062 185.300781 L 225.449219 184.996094 C 225.601562 184.945312 225.75 184.898438 225.902344 184.84375 L 226.355469 184.683594 C 227.5625 184.265625 228.761719 183.796875 229.957031 183.300781 C 232.339844 182.300781 234.691406 181.148438 236.945312 179.75 C 237.226562 179.570312 237.511719 179.402344 237.789062 179.214844 L 238.617188 178.65625 C 239.164062 178.269531 239.714844 177.878906 240.242188 177.457031 C 241.304688 176.625 242.332031 175.71875 243.292969 174.730469 C 244.253906 173.738281 245.144531 172.664062 245.941406 171.503906 C 246.742188 170.339844 247.441406 169.097656 248.011719 167.789062 C 248.128906 167.503906 248.25 167.21875 248.367188 166.929688 L 248.675781 166.054688 C 248.699219 165.980469 248.726562 165.910156 248.75 165.835938 L 248.949219 165.167969 L 249.078125 164.722656 L 249.183594 164.273438 L 249.289062 163.820312 C 249.324219 163.671875 249.359375 163.519531 249.382812 163.371094 L 249.542969 162.460938 C 249.554688 162.382812 249.566406 162.308594 249.574219 162.230469 " fill-opacity="1" fill-rule="nonzero"/></g><g clip-path="url(#ba9378d987)"><path fill="#231f20" d="M 194.453125 76.675781 C 192.449219 73.351562 190.628906 69.949219 189.089844 66.464844 C 188.320312 64.71875 187.621094 62.957031 187.011719 61.171875 C 186.398438 59.386719 185.875 57.585938 185.46875 55.765625 C 184.65625 52.128906 184.296875 48.421875 184.609375 44.789062 C 184.765625 42.976562 185.105469 41.1875 185.617188 39.453125 C 186.128906 37.722656 186.824219 36.050781 187.679688 34.46875 C 188.539062 32.886719 189.5625 31.398438 190.714844 30.015625 C 191.863281 28.632812 193.144531 27.359375 194.503906 26.1875 C 195.867188 25.015625 197.3125 23.945312 198.808594 22.960938 C 199.1875 22.71875 199.5625 22.476562 199.941406 22.234375 C 200.324219 22.007812 200.710938 21.777344 201.09375 21.550781 C 201.476562 21.316406 201.871094 21.109375 202.261719 20.894531 C 202.65625 20.679688 203.042969 20.457031 203.441406 20.261719 C 201.65625 21.074219 199.894531 21.972656 198.1875 22.996094 C 196.480469 24.011719 194.832031 25.160156 193.277344 26.449219 C 192.890625 26.777344 192.515625 27.113281 192.132812 27.445312 C 191.761719 27.789062 191.394531 28.144531 191.027344 28.496094 C 190.851562 28.679688 190.675781 28.863281 190.496094 29.046875 L 190.234375 29.324219 C 190.144531 29.414062 190.054688 29.503906 189.972656 29.601562 C 189.804688 29.792969 189.636719 29.988281 189.46875 30.179688 L 189.214844 30.472656 C 189.128906 30.566406 189.054688 30.667969 188.972656 30.769531 C 187.675781 32.359375 186.542969 34.105469 185.613281 35.976562 C 184.691406 37.847656 183.996094 39.851562 183.515625 41.914062 C 183.480469 42.042969 183.457031 42.175781 183.433594 42.304688 L 183.351562 42.695312 L 183.273438 43.085938 L 183.238281 43.28125 L 183.207031 43.476562 C 183.128906 44.003906 183.03125 44.527344 182.980469 45.058594 C 182.953125 45.324219 182.921875 45.589844 182.894531 45.855469 C 182.875 46.121094 182.855469 46.386719 182.835938 46.65625 L 182.808594 47.054688 C 182.800781 47.1875 182.796875 47.320312 182.792969 47.453125 C 182.785156 47.722656 182.773438 47.992188 182.765625 48.257812 C 182.726562 50.402344 182.898438 52.558594 183.214844 54.699219 C 183.246094 54.96875 183.296875 55.230469 183.339844 55.5 C 183.386719 55.765625 183.433594 56.035156 183.480469 56.300781 C 183.53125 56.566406 183.585938 56.832031 183.640625 57.097656 C 183.691406 57.363281 183.742188 57.632812 183.808594 57.894531 C 183.929688 58.421875 184.042969 58.957031 184.183594 59.480469 C 184.253906 59.746094 184.320312 60.007812 184.386719 60.269531 C 184.460938 60.535156 184.535156 60.796875 184.609375 61.058594 C 185.800781 65.253906 187.472656 69.335938 189.417969 73.308594 C 190.425781 75.363281 191.515625 77.386719 192.667969 79.382812 C 193.320312 78.574219 193.976562 77.773438 194.636719 76.976562 C 194.578125 76.878906 194.515625 76.777344 194.453125 76.675781 " fill-opacity="1" fill-rule="nonzero"/></g><path fill="#231f20" d="M 127.863281 188.046875 C 127.347656 188.082031 126.828125 188.132812 126.3125 188.175781 C 124.25 188.359375 122.191406 188.605469 120.148438 188.933594 C 118.105469 189.257812 116.074219 189.664062 114.0625 190.175781 C 113.5625 190.296875 113.0625 190.4375 112.5625 190.578125 L 112.1875 190.683594 L 111.816406 190.792969 L 111.070312 191.019531 C 110.824219 191.09375 110.578125 191.183594 110.332031 191.261719 L 109.59375 191.511719 L 108.859375 191.777344 C 108.617188 191.867188 108.371094 191.957031 108.128906 192.054688 L 107.40625 192.34375 C 107.164062 192.4375 106.925781 192.546875 106.6875 192.648438 L 106.148438 192.882812 L 105.972656 192.964844 L 105.261719 193.296875 C 104.324219 193.757812 103.398438 194.238281 102.5 194.785156 L 102.164062 194.988281 C 102.050781 195.054688 101.941406 195.128906 101.832031 195.199219 C 101.609375 195.34375 101.390625 195.484375 101.171875 195.628906 L 100.523438 196.082031 L 100.363281 196.191406 L 100.203125 196.3125 L 99.886719 196.550781 C 99.050781 197.1875 98.238281 197.867188 97.488281 198.609375 C 96.730469 199.347656 96.019531 200.132812 95.367188 200.96875 C 94.714844 201.800781 94.128906 202.6875 93.609375 203.605469 C 92.566406 205.4375 91.804688 207.417969 91.332031 209.433594 C 90.855469 211.453125 90.636719 213.5 90.632812 215.519531 C 90.628906 217.542969 90.8125 219.539062 91.140625 221.488281 C 91.792969 225.390625 92.964844 229.113281 94.386719 232.671875 C 95.8125 236.230469 97.496094 239.625 99.324219 242.894531 C 101.152344 246.164062 103.136719 249.296875 105.214844 252.320312 C 107.296875 255.34375 109.472656 258.257812 111.761719 261.039062 C 109.414062 257.847656 107.199219 254.515625 105.097656 251.0625 C 103.003906 247.609375 101.035156 244.027344 99.273438 240.308594 C 97.511719 236.589844 95.949219 232.726562 94.78125 228.722656 C 94.199219 226.722656 93.710938 224.683594 93.378906 222.617188 C 93.042969 220.554688 92.855469 218.464844 92.882812 216.378906 C 92.914062 214.292969 93.160156 212.210938 93.695312 210.210938 C 94.230469 208.210938 95.058594 206.296875 96.179688 204.566406 C 97.300781 202.835938 98.714844 201.292969 100.328125 199.972656 C 101.132812 199.308594 101.988281 198.699219 102.882812 198.136719 C 103.777344 197.582031 104.710938 197.074219 105.667969 196.609375 L 106.390625 196.269531 C 106.632812 196.160156 106.882812 196.054688 107.125 195.949219 C 107.25 195.898438 107.371094 195.839844 107.496094 195.792969 L 107.871094 195.640625 L 108.246094 195.496094 C 108.367188 195.445312 108.492188 195.394531 108.621094 195.351562 L 109.378906 195.074219 C 109.503906 195.023438 109.632812 194.984375 109.761719 194.941406 L 110.148438 194.8125 C 110.65625 194.636719 111.179688 194.484375 111.699219 194.328125 C 113.78125 193.71875 115.925781 193.253906 118.097656 192.882812 C 120.273438 192.511719 122.480469 192.246094 124.707031 192.058594 C 125.691406 191.976562 126.675781 191.910156 127.667969 191.859375 C 127.753906 190.597656 127.859375 189.324219 127.984375 188.039062 C 127.945312 188.039062 127.902344 188.042969 127.863281 188.046875 " fill-opacity="1" fill-rule="nonzero"/><path fill="#231f20" d="M 208.34375 137.273438 C 208.34375 137.273438 193.441406 148.472656 178.261719 138.964844 C 178.261719 138.964844 196.367188 139.121094 208.34375 137.273438 Z M 194.265625 160.960938 C 193.917969 161.15625 193.410156 161.429688 192.765625 161.75 C 192.121094 162.074219 191.339844 162.445312 190.449219 162.832031 C 190.226562 162.929688 189.996094 163.027344 189.757812 163.128906 C 189.527344 163.230469 189.285156 163.332031 189.039062 163.433594 C 188.546875 163.640625 188.03125 163.84375 187.492188 164.046875 C 186.414062 164.449219 185.25 164.832031 184.023438 165.171875 C 183.871094 165.214844 183.71875 165.257812 183.5625 165.296875 C 183.40625 165.339844 183.253906 165.378906 183.101562 165.421875 C 182.789062 165.5 182.476562 165.578125 182.160156 165.652344 C 181.527344 165.796875 180.878906 165.925781 180.226562 166.03125 C 178.917969 166.246094 177.578125 166.371094 176.226562 166.371094 C 174.875 166.375 173.515625 166.25 172.1875 165.964844 C 172.421875 165.898438 172.65625 165.828125 172.894531 165.765625 L 173.605469 165.570312 L 175.03125 165.183594 C 175.976562 164.929688 176.921875 164.679688 177.867188 164.429688 C 178.8125 164.1875 179.75 163.941406 180.691406 163.707031 C 181.640625 163.476562 182.585938 163.25 183.53125 163.03125 C 184.476562 162.808594 185.417969 162.589844 186.355469 162.375 L 187.761719 162.0625 C 187.996094 162.007812 188.234375 161.960938 188.46875 161.910156 L 189.175781 161.765625 C 191.0625 161.375 192.9375 161.003906 194.800781 160.652344 C 194.800781 160.652344 194.613281 160.765625 194.265625 160.960938 Z M 120.640625 254.691406 C 120.347656 255.203125 119.699219 255.5 119.0625 255.421875 C 118.003906 255.292969 117.421875 254.304688 117.90625 253.460938 C 118.203125 252.953125 118.847656 252.65625 119.488281 252.734375 C 120.542969 252.863281 121.125 253.855469 120.640625 254.691406 Z M 247.164062 75.222656 C 247.132812 75.082031 247.058594 74.941406 246.945312 74.816406 C 246.828125 74.691406 246.679688 74.578125 246.488281 74.492188 C 245.351562 73.980469 244.175781 73.539062 242.96875 73.160156 L 242.738281 73.085938 C 242.664062 73.0625 242.582031 73.042969 242.5 73.019531 L 242.023438 72.886719 L 241.542969 72.753906 C 241.460938 72.734375 241.382812 72.714844 241.304688 72.691406 L 241.070312 72.632812 C 240.753906 72.554688 240.4375 72.476562 240.121094 72.402344 C 239.808594 72.332031 239.496094 72.265625 239.179688 72.199219 C 236.675781 71.671875 234.195312 71.359375 231.730469 71.21875 C 229.269531 71.078125 226.824219 71.109375 224.402344 71.285156 C 223.800781 71.332031 223.195312 71.382812 222.589844 71.441406 C 221.996094 71.507812 221.398438 71.578125 220.800781 71.65625 C 220.195312 71.730469 219.613281 71.828125 219.019531 71.921875 L 218.132812 72.074219 L 217.6875 72.148438 L 217.253906 72.234375 C 217.253906 72.234375 217 72.273438 216.523438 72.382812 C 216.289062 72.433594 215.996094 72.503906 215.648438 72.59375 C 215.476562 72.640625 215.289062 72.691406 215.089844 72.746094 C 214.894531 72.808594 214.6875 72.875 214.46875 72.945312 C 213.601562 73.234375 212.519531 73.609375 211.34375 74.160156 C 211.046875 74.292969 210.738281 74.4375 210.425781 74.585938 C 210.265625 74.664062 210.105469 74.742188 209.945312 74.824219 C 209.785156 74.90625 209.625 74.992188 209.464844 75.078125 C 208.816406 75.425781 208.136719 75.8125 207.433594 76.242188 C 206.746094 76.675781 206.035156 77.15625 205.304688 77.675781 C 204.9375 77.933594 204.582031 78.214844 204.21875 78.503906 C 203.855469 78.789062 203.492188 79.089844 203.121094 79.398438 C 202.9375 79.554688 202.75 79.710938 202.566406 79.871094 C 202.386719 80.035156 202.203125 80.203125 202.023438 80.371094 C 201.660156 80.710938 201.296875 81.058594 200.929688 81.421875 C 200.746094 81.601562 200.566406 81.785156 200.382812 81.972656 C 200.335938 82.019531 200.289062 82.066406 200.246094 82.113281 C 200.203125 82.160156 200.15625 82.210938 200.113281 82.257812 C 200.023438 82.355469 199.933594 82.453125 199.847656 82.550781 C 199.492188 82.941406 199.136719 83.34375 198.785156 83.757812 C 198.066406 84.578125 197.402344 85.476562 196.734375 86.410156 C 196.566406 86.644531 196.402344 86.878906 196.238281 87.121094 C 196.15625 87.242188 196.070312 87.359375 195.992188 87.484375 C 195.914062 87.605469 195.835938 87.730469 195.757812 87.855469 C 195.445312 88.351562 195.132812 88.863281 194.828125 89.382812 C 194.675781 89.644531 194.527344 89.910156 194.375 90.175781 C 194.300781 90.308594 194.222656 90.441406 194.152344 90.578125 C 194.082031 90.714844 194.011719 90.851562 193.941406 90.988281 C 193.660156 91.542969 193.386719 92.101562 193.117188 92.679688 C 192.984375 92.964844 192.851562 93.253906 192.71875 93.550781 C 192.65625 93.695312 192.589844 93.839844 192.527344 93.992188 C 192.464844 94.140625 192.40625 94.289062 192.34375 94.441406 C 192.105469 95.046875 191.871094 95.664062 191.648438 96.289062 C 191.648438 96.289062 191.554688 96.074219 191.523438 95.527344 C 191.503906 95.253906 191.503906 94.894531 191.539062 94.441406 C 191.554688 94.214844 191.582031 93.964844 191.621094 93.6875 C 191.636719 93.550781 191.660156 93.402344 191.683594 93.25 C 191.695312 93.171875 191.710938 93.097656 191.722656 93.015625 C 191.738281 92.9375 191.757812 92.855469 191.773438 92.773438 C 191.914062 92.117188 192.113281 91.34375 192.402344 90.441406 C 192.542969 89.992188 192.707031 89.507812 192.898438 88.992188 C 193.101562 88.476562 193.328125 87.929688 193.582031 87.347656 C 193.839844 86.761719 194.128906 86.144531 194.449219 85.484375 C 194.785156 84.832031 195.15625 84.144531 195.566406 83.410156 C 195.773438 83.046875 195.988281 82.671875 196.214844 82.285156 C 196.449219 81.902344 196.699219 81.511719 196.957031 81.109375 C 197.214844 80.707031 197.488281 80.292969 197.769531 79.871094 C 197.910156 79.660156 198.054688 79.441406 198.207031 79.226562 C 198.359375 79.011719 198.515625 78.796875 198.675781 78.574219 L 198.078125 78.867188 C 197.976562 78.914062 197.882812 78.964844 197.785156 79.015625 L 197.496094 79.167969 L 196.332031 79.777344 L 195.171875 80.398438 C 194.976562 80.503906 194.792969 80.609375 194.605469 80.71875 L 194.039062 81.042969 L 192.914062 81.695312 L 192.351562 82.027344 L 192.070312 82.195312 C 191.976562 82.25 191.882812 82.304688 191.792969 82.363281 C 191.066406 82.816406 190.339844 83.277344 189.613281 83.742188 L 189.074219 84.09375 L 188.800781 84.269531 L 188.539062 84.449219 L 187.488281 85.171875 L 186.4375 85.902344 C 186.089844 86.148438 185.734375 86.390625 185.402344 86.644531 C 184.726562 87.144531 184.050781 87.652344 183.378906 88.164062 L 182.875 88.546875 L 182.625 88.742188 L 182.382812 88.9375 L 181.410156 89.722656 C 176.21875 93.929688 171.566406 98.519531 167.40625 103.300781 C 167.316406 103.398438 167.234375 103.496094 167.152344 103.59375 L 166.90625 103.894531 C 166.742188 104.09375 166.578125 104.296875 166.421875 104.5 C 166.101562 104.90625 165.789062 105.316406 165.488281 105.734375 C 165.1875 106.152344 164.894531 106.574219 164.613281 107 C 164.539062 107.109375 164.472656 107.214844 164.40625 107.324219 L 164.207031 107.648438 C 164.078125 107.863281 163.949219 108.082031 163.820312 108.300781 C 163.3125 109.175781 162.84375 110.070312 162.414062 110.972656 L 162.253906 111.316406 C 162.203125 111.429688 162.15625 111.542969 162.105469 111.65625 C 162.007812 111.882812 161.914062 112.113281 161.820312 112.34375 C 161.636719 112.804688 161.460938 113.265625 161.296875 113.734375 C 161.132812 114.199219 160.976562 114.664062 160.832031 115.132812 C 160.761719 115.367188 160.691406 115.601562 160.625 115.839844 C 160.589844 115.957031 160.558594 116.074219 160.527344 116.191406 L 160.441406 116.546875 C 160.210938 117.496094 160.027344 118.445312 159.882812 119.402344 C 159.8125 119.878906 159.75 120.355469 159.703125 120.832031 C 159.675781 121.070312 159.65625 121.308594 159.636719 121.550781 C 159.617188 121.789062 159.605469 122.027344 159.597656 122.269531 C 159.558594 123.226562 159.5625 124.179688 159.609375 125.132812 C 159.640625 125.707031 159.679688 126.277344 159.722656 126.828125 C 159.746094 127.105469 159.769531 127.378906 159.796875 127.648438 C 159.804688 127.714844 159.8125 127.78125 159.816406 127.847656 C 159.824219 127.914062 159.832031 127.980469 159.84375 128.046875 C 159.859375 128.179688 159.875 128.3125 159.890625 128.441406 C 160.03125 129.488281 160.203125 130.464844 160.414062 131.347656 C 160.828125 133.109375 161.390625 134.492188 162.117188 135.289062 C 162.117188 135.289062 161.90625 135.203125 161.527344 134.867188 C 161.144531 134.527344 160.59375 133.945312 159.910156 132.949219 C 159.226562 131.949219 158.410156 130.542969 157.519531 128.535156 C 157.296875 128.035156 157.066406 127.496094 156.835938 126.917969 C 156.605469 126.339844 156.363281 125.71875 156.140625 125.054688 C 155.679688 123.730469 155.214844 122.230469 154.753906 120.527344 C 150.046875 128.109375 146.203125 135.796875 143.050781 143.320312 C 139.894531 150.847656 137.425781 158.222656 135.449219 165.238281 C 135.285156 165.828125 135.132812 166.421875 134.996094 167.019531 C 134.863281 167.613281 134.734375 168.210938 134.644531 168.8125 C 134.453125 170.011719 134.320312 171.21875 134.253906 172.425781 C 134.21875 173.027344 134.199219 173.632812 134.195312 174.234375 C 134.195312 174.535156 134.199219 174.835938 134.203125 175.136719 C 134.207031 175.289062 134.210938 175.4375 134.21875 175.589844 L 134.242188 176.039062 C 134.316406 177.246094 134.449219 178.441406 134.648438 179.628906 C 134.808594 180.5625 134.976562 181.46875 135.164062 182.332031 C 135.257812 182.761719 135.355469 183.179688 135.453125 183.582031 C 135.558594 183.988281 135.667969 184.378906 135.78125 184.75 C 136.230469 186.242188 136.738281 187.457031 137.304688 188.226562 C 137.304688 188.226562 136.683594 187.503906 135.6875 186.128906 C 135.1875 185.441406 134.597656 184.59375 133.941406 183.589844 C 133.777344 183.339844 133.609375 183.078125 133.4375 182.808594 C 133.269531 182.539062 133.097656 182.261719 132.921875 181.972656 C 132.570312 181.398438 132.210938 180.78125 131.839844 180.132812 C 131.449219 181.964844 131.128906 183.761719 130.8125 185.519531 C 130.65625 186.394531 130.503906 187.261719 130.359375 188.113281 C 130.285156 188.542969 130.214844 188.96875 130.140625 189.386719 C 130.078125 189.8125 130.015625 190.230469 129.949219 190.648438 C 129.699219 192.3125 129.46875 193.933594 129.25 195.5 C 129.199219 195.894531 129.144531 196.28125 129.09375 196.667969 C 129.082031 196.761719 129.066406 196.859375 129.054688 196.957031 C 129.042969 197.050781 129.03125 197.148438 129.019531 197.246094 C 128.996094 197.4375 128.976562 197.628906 128.953125 197.816406 C 128.863281 198.578125 128.777344 199.324219 128.695312 200.058594 C 128.53125 201.523438 128.382812 202.9375 128.25 204.296875 C 128.230469 204.464844 128.214844 204.632812 128.199219 204.800781 C 128.183594 204.96875 128.167969 205.136719 128.15625 205.300781 C 128.128906 205.632812 128.101562 205.964844 128.074219 206.289062 C 128.023438 206.941406 127.972656 207.574219 127.925781 208.195312 C 127.832031 209.4375 127.75 210.617188 127.675781 211.738281 C 127.660156 212.015625 127.640625 212.289062 127.625 212.5625 C 127.605469 212.835938 127.589844 213.101562 127.578125 213.367188 C 127.554688 213.894531 127.53125 214.40625 127.511719 214.902344 C 127.507812 214.984375 127.492188 215.066406 127.464844 215.148438 L 126.273438 218.742188 L 125.53125 220.988281 L 125.386719 221.4375 L 125.101562 222.339844 L 123.960938 225.941406 L 123.386719 227.742188 L 123.101562 228.640625 L 122.960938 229.09375 L 122.824219 229.542969 L 121.597656 233.574219 L 121.667969 233.597656 C 121.507812 234.113281 121.347656 234.632812 121.1875 235.152344 C 120.664062 236.867188 120.164062 238.5625 119.6875 240.242188 C 119.570312 240.660156 119.453125 241.078125 119.335938 241.492188 C 119.222656 241.910156 119.113281 242.324219 119 242.738281 C 118.78125 243.566406 118.570312 244.390625 118.363281 245.203125 C 118.195312 245.863281 118.03125 246.519531 117.871094 247.171875 L 113.261719 263.195312 C 113.160156 263.550781 113.691406 263.769531 113.9375 263.472656 C 116.75 260.085938 122.609375 255.832031 124.261719 254.65625 C 124.457031 254.519531 124.414062 254.253906 124.183594 254.164062 C 122.644531 253.5625 121.433594 252.550781 120.5 251.480469 C 122.1875 245.769531 123.871094 240.273438 125.542969 234.976562 L 125.585938 234.992188 L 126.753906 231.246094 C 127.042969 230.300781 127.355469 229.363281 127.660156 228.421875 L 128.578125 225.601562 L 129.496094 222.777344 C 129.648438 222.304688 129.8125 221.839844 129.96875 221.371094 L 130.449219 219.960938 L 132.117188 215.039062 L 132.238281 214.6875 L 132.363281 214.335938 L 134.347656 208.730469 L 134.84375 207.328125 L 135.359375 205.929688 L 137.421875 200.34375 C 137.507812 200.109375 137.597656 199.878906 137.6875 199.648438 L 137.957031 198.953125 L 138.492188 197.5625 L 139.5625 194.777344 L 140.101562 193.386719 C 140.28125 192.921875 140.46875 192.460938 140.65625 192 L 142.886719 186.460938 L 145.199219 180.945312 C 148.335938 173.605469 151.675781 166.332031 155.277344 159.144531 C 156.160156 157.34375 157.109375 155.566406 158.035156 153.777344 L 158.730469 152.4375 L 158.816406 152.273438 L 158.90625 152.105469 L 159.085938 151.773438 L 159.449219 151.109375 L 160.894531 148.449219 L 161.253906 147.785156 C 161.375 147.5625 161.496094 147.339844 161.621094 147.121094 L 162.371094 145.804688 L 163.871094 143.167969 L 164.058594 142.835938 L 164.246094 142.507812 L 164.636719 141.851562 L 165.414062 140.546875 L 166.1875 139.238281 L 166.578125 138.585938 L 166.773438 138.257812 C 166.835938 138.148438 166.90625 138.042969 166.972656 137.933594 L 168.582031 135.34375 L 169.386719 134.046875 C 169.660156 133.617188 169.941406 133.191406 170.21875 132.761719 L 171.886719 130.199219 L 172.097656 129.878906 L 172.3125 129.5625 L 172.746094 128.925781 L 173.609375 127.65625 L 174.476562 126.390625 L 174.691406 126.074219 C 174.765625 125.96875 174.839844 125.863281 174.914062 125.757812 L 175.363281 125.132812 L 177.152344 122.625 C 177.226562 122.519531 177.300781 122.414062 177.378906 122.3125 L 177.609375 122 L 178.074219 121.382812 L 179.925781 118.90625 L 180.886719 117.6875 L 181.847656 116.464844 L 182.328125 115.859375 C 182.40625 115.753906 182.484375 115.652344 182.566406 115.550781 L 182.816406 115.253906 L 184.804688 112.847656 L 185.050781 112.546875 C 185.132812 112.449219 185.222656 112.351562 185.304688 112.25 L 185.820312 111.660156 L 186.847656 110.480469 L 187.363281 109.886719 L 187.617188 109.59375 C 187.707031 109.496094 187.796875 109.398438 187.882812 109.300781 L 188.945312 108.140625 C 191.78125 105.042969 194.765625 102.042969 197.953125 99.1875 L 197.742188 99.375 C 197.671875 99.441406 197.601562 99.503906 197.535156 99.570312 L 196.316406 100.742188 L 195.503906 101.527344 L 195.300781 101.722656 L 195.203125 101.820312 L 195.101562 101.917969 L 194.710938 102.320312 L 193.140625 103.921875 L 192.75 104.324219 L 192.367188 104.730469 L 190.851562 106.363281 L 190.472656 106.769531 C 190.40625 106.839844 190.34375 106.90625 190.28125 106.976562 L 190.097656 107.183594 L 188.632812 108.84375 L 187.898438 109.679688 C 187.660156 109.957031 187.425781 110.242188 187.1875 110.523438 L 185.773438 112.214844 C 182.035156 116.746094 178.59375 121.4375 175.382812 126.230469 C 172.167969 131.023438 169.179688 135.914062 166.359375 140.871094 L 165.304688 142.730469 L 165.039062 143.195312 L 164.277344 144.601562 L 163.257812 146.472656 L 162.75 147.414062 L 162.496094 147.878906 L 162.25 148.351562 L 160.289062 152.128906 L 160.046875 152.601562 L 159.921875 152.835938 L 159.804688 153.074219 L 159.332031 154.023438 L 158.390625 155.925781 L 157.449219 157.824219 C 157.367188 157.984375 157.292969 158.144531 157.21875 158.300781 L 156.992188 158.78125 L 156.539062 159.738281 C 155.933594 161.011719 155.324219 162.289062 154.726562 163.566406 L 152.980469 167.414062 L 152.542969 168.375 C 152.402344 168.695312 152.25 169.015625 152.113281 169.339844 L 151.273438 171.273438 L 150.4375 173.207031 L 149.808594 174.660156 L 149.703125 174.902344 L 149.601562 175.144531 L 147.988281 179.03125 L 147.183594 180.976562 L 146.40625 182.929688 L 144.855469 186.835938 L 144.660156 187.324219 C 144.597656 187.488281 144.539062 187.652344 144.476562 187.816406 L 144.101562 188.796875 L 143.359375 190.757812 L 142.613281 192.71875 C 142.367188 193.371094 142.113281 194.023438 141.878906 194.683594 L 140.449219 198.621094 L 139.730469 200.589844 C 139.609375 200.917969 139.5 201.25 139.382812 201.578125 L 139.042969 202.566406 L 137.324219 207.507812 L 137.152344 208.003906 L 136.988281 208.5 L 136.328125 210.484375 L 135.011719 214.449219 L 134.679688 215.441406 L 134.363281 216.433594 L 133.730469 218.425781 C 133.460938 219.273438 134.46875 219.984375 135.203125 219.46875 C 136.332031 218.679688 137.441406 217.894531 138.53125 217.113281 C 139.082031 216.726562 139.628906 216.335938 140.171875 215.953125 C 140.714844 215.5625 141.253906 215.175781 141.789062 214.792969 C 142.859375 214.023438 143.910156 213.257812 144.945312 212.492188 C 145.460938 212.113281 145.972656 211.730469 146.484375 211.351562 C 146.996094 210.976562 147.507812 210.597656 148.015625 210.222656 C 149.027344 209.472656 150.023438 208.722656 151.003906 207.976562 C 151.492188 207.605469 151.976562 207.234375 152.457031 206.863281 C 152.941406 206.492188 153.414062 206.121094 153.894531 205.753906 C 155.8125 204.289062 157.660156 202.832031 159.445312 201.386719 C 166.632812 195.636719 172.949219 190.144531 178.515625 184.886719 C 176.777344 185.140625 175.1875 185.34375 173.738281 185.503906 C 172.300781 185.664062 171.007812 185.789062 169.839844 185.871094 C 167.511719 186.035156 165.707031 186.046875 164.339844 185.984375 C 162.96875 185.917969 162.039062 185.78125 161.449219 185.65625 C 160.859375 185.53125 160.613281 185.421875 160.613281 185.421875 C 163.296875 186.144531 166.296875 185.8125 169.289062 184.945312 C 169.664062 184.835938 170.039062 184.71875 170.410156 184.59375 C 170.597656 184.53125 170.785156 184.464844 170.96875 184.398438 C 171.15625 184.335938 171.34375 184.269531 171.53125 184.199219 C 172.28125 183.925781 173.027344 183.628906 173.765625 183.308594 C 175.234375 182.671875 176.664062 181.957031 178.015625 181.21875 C 178.355469 181.035156 178.691406 180.851562 179.023438 180.671875 C 179.355469 180.492188 179.679688 180.308594 180.003906 180.125 C 180.640625 179.757812 181.257812 179.394531 181.84375 179.039062 C 182.429688 178.683594 182.988281 178.335938 183.511719 178 C 184.03125 177.664062 184.523438 177.347656 184.984375 177.054688 C 186.8125 175.875 188.011719 175.015625 188.28125 174.875 C 188.308594 174.859375 188.347656 174.867188 188.375 174.886719 C 188.40625 174.917969 188.457031 174.917969 188.484375 174.886719 C 193.214844 169.832031 197.25 164.996094 200.714844 160.347656 C 204.179688 155.699219 207.078125 151.238281 209.542969 146.925781 C 209.695312 146.65625 209.84375 146.382812 209.996094 146.113281 C 210.148438 145.847656 210.296875 145.582031 210.445312 145.316406 C 210.742188 144.789062 211.03125 144.253906 211.3125 143.71875 C 211.382812 143.585938 211.453125 143.453125 211.519531 143.320312 L 211.625 143.117188 L 211.730469 142.921875 C 211.867188 142.664062 212.007812 142.402344 212.140625 142.140625 C 212.414062 141.617188 212.675781 141.09375 212.933594 140.566406 C 213 140.433594 213.0625 140.300781 213.125 140.167969 C 213.191406 140.042969 213.253906 139.914062 213.320312 139.785156 C 213.449219 139.527344 213.574219 139.273438 213.695312 139.015625 C 213.945312 138.5 214.1875 137.980469 214.421875 137.460938 C 214.480469 137.328125 214.539062 137.203125 214.601562 137.078125 C 214.660156 136.949219 214.71875 136.824219 214.777344 136.699219 C 214.894531 136.445312 215.011719 136.191406 215.125 135.933594 C 215.238281 135.679688 215.351562 135.425781 215.460938 135.167969 C 215.519531 135.039062 215.574219 134.914062 215.625 134.785156 C 215.683594 134.65625 215.734375 134.523438 215.792969 134.402344 C 217.546875 130.359375 219.015625 126.429688 220.367188 122.578125 C 219.792969 122.632812 219.230469 122.691406 218.683594 122.742188 C 218.128906 122.816406 217.589844 122.886719 217.058594 122.953125 C 216.792969 122.984375 216.527344 123.019531 216.265625 123.050781 C 216.132812 123.070312 216.003906 123.085938 215.871094 123.101562 C 215.808594 123.109375 215.742188 123.117188 215.679688 123.125 C 215.613281 123.132812 215.550781 123.144531 215.484375 123.15625 C 214.96875 123.234375 214.464844 123.308594 213.972656 123.382812 C 213.476562 123.460938 212.988281 123.53125 212.515625 123.601562 C 212.457031 123.609375 212.394531 123.617188 212.335938 123.628906 C 212.277344 123.640625 212.21875 123.648438 212.160156 123.660156 C 212.042969 123.679688 211.925781 123.699219 211.8125 123.71875 C 211.578125 123.757812 211.351562 123.796875 211.121094 123.835938 C 210.664062 123.910156 210.21875 123.988281 209.785156 124.058594 C 209.566406 124.09375 209.351562 124.128906 209.136719 124.164062 C 209.03125 124.179688 208.925781 124.199219 208.820312 124.214844 C 208.714844 124.234375 208.613281 124.253906 208.507812 124.269531 C 207.683594 124.421875 206.894531 124.5625 206.144531 124.6875 C 205.765625 124.75 205.398438 124.8125 205.046875 124.871094 C 204.863281 124.898438 204.695312 124.933594 204.523438 124.964844 C 204.351562 124.996094 204.179688 125.023438 204.015625 125.054688 C 203.347656 125.171875 202.714844 125.277344 202.121094 125.371094 C 201.824219 125.417969 201.539062 125.460938 201.257812 125.503906 C 201.117188 125.523438 200.984375 125.546875 200.847656 125.5625 C 200.714844 125.582031 200.582031 125.601562 200.453125 125.621094 C 198.398438 125.945312 196.921875 126.085938 195.972656 126.136719 C 195.851562 126.144531 195.742188 126.148438 195.636719 126.152344 C 195.535156 126.15625 195.441406 126.160156 195.355469 126.164062 C 195.183594 126.167969 195.042969 126.171875 194.929688 126.171875 C 194.703125 126.171875 194.597656 126.164062 194.597656 126.164062 C 194.785156 126.140625 194.976562 126.113281 195.167969 126.078125 C 195.265625 126.0625 195.359375 126.046875 195.457031 126.027344 C 195.558594 126.007812 195.65625 125.988281 195.757812 125.96875 C 196.15625 125.894531 196.566406 125.800781 196.980469 125.691406 C 197.816406 125.472656 198.675781 125.195312 199.5625 124.867188 C 199.667969 124.824219 199.785156 124.785156 199.898438 124.746094 C 200.007812 124.707031 200.121094 124.664062 200.234375 124.625 C 200.460938 124.539062 200.6875 124.453125 200.917969 124.363281 C 201.375 124.1875 201.835938 124 202.300781 123.800781 C 203.222656 123.398438 204.183594 123 205.136719 122.558594 C 205.375 122.449219 205.613281 122.335938 205.851562 122.226562 C 205.96875 122.167969 206.089844 122.113281 206.207031 122.058594 L 206.386719 121.96875 L 206.566406 121.890625 C 207.050781 121.671875 207.535156 121.449219 208.015625 121.21875 C 208.253906 121.105469 208.492188 120.992188 208.734375 120.875 L 209.089844 120.703125 L 209.269531 120.613281 C 209.328125 120.585938 209.390625 120.558594 209.449219 120.53125 C 209.929688 120.3125 210.410156 120.085938 210.882812 119.859375 C 211.121094 119.746094 211.355469 119.632812 211.589844 119.519531 C 211.707031 119.460938 211.824219 119.40625 211.941406 119.347656 C 212.054688 119.289062 212.175781 119.238281 212.292969 119.183594 C 212.765625 118.96875 213.226562 118.753906 213.683594 118.539062 C 213.910156 118.429688 214.136719 118.320312 214.363281 118.214844 L 214.53125 118.132812 L 214.699219 118.058594 C 214.8125 118.007812 214.925781 117.957031 215.039062 117.90625 C 215.488281 117.707031 215.925781 117.507812 216.355469 117.308594 C 216.921875 117.035156 217.484375 116.773438 218.007812 116.464844 C 218.273438 116.3125 218.53125 116.152344 218.78125 115.984375 L 218.96875 115.855469 L 219.152344 115.734375 C 219.277344 115.648438 219.398438 115.566406 219.519531 115.480469 C 219.761719 115.304688 219.996094 115.125 220.226562 114.9375 C 220.339844 114.84375 220.453125 114.746094 220.5625 114.648438 L 220.726562 114.5 L 220.894531 114.359375 C 221.332031 113.972656 221.746094 113.554688 222.136719 113.109375 C 223.703125 111.367188 224.917969 109.273438 225.832031 106.820312 C 226.015625 106.332031 226.195312 105.851562 226.375 105.371094 C 226.5625 104.894531 226.75 104.421875 226.933594 103.953125 C 227.027344 103.714844 227.121094 103.476562 227.214844 103.242188 C 227.3125 103.007812 227.40625 102.777344 227.503906 102.546875 C 227.695312 102.082031 227.886719 101.609375 228.085938 101.148438 C 228.289062 100.6875 228.488281 100.234375 228.6875 99.78125 C 228.738281 99.667969 228.785156 99.554688 228.835938 99.441406 C 228.886719 99.324219 228.9375 99.210938 228.992188 99.101562 C 229.09375 98.875 229.199219 98.652344 229.300781 98.429688 C 229.40625 98.207031 229.511719 97.984375 229.617188 97.765625 C 229.667969 97.652344 229.71875 97.539062 229.773438 97.429688 L 229.851562 97.261719 L 229.933594 97.097656 C 230.152344 96.660156 230.367188 96.226562 230.582031 95.796875 C 230.800781 95.359375 231.023438 94.945312 231.246094 94.519531 C 231.359375 94.308594 231.472656 94.097656 231.585938 93.890625 C 231.644531 93.785156 231.699219 93.679688 231.757812 93.574219 C 231.8125 93.46875 231.871094 93.371094 231.929688 93.269531 C 232.160156 92.859375 232.394531 92.453125 232.628906 92.046875 C 232.683594 91.945312 232.746094 91.84375 232.804688 91.742188 C 232.863281 91.644531 232.921875 91.546875 232.980469 91.449219 C 233.101562 91.25 233.222656 91.054688 233.339844 90.859375 C 233.460938 90.664062 233.582031 90.46875 233.703125 90.277344 C 233.761719 90.179688 233.820312 90.082031 233.882812 89.988281 C 233.945312 89.890625 234.007812 89.796875 234.066406 89.703125 C 234.3125 89.328125 234.558594 88.953125 234.804688 88.582031 C 234.929688 88.394531 235.054688 88.21875 235.179688 88.039062 C 235.308594 87.859375 235.433594 87.679688 235.554688 87.503906 C 235.683594 87.324219 235.808594 87.148438 235.933594 86.972656 C 236.0625 86.796875 236.1875 86.628906 236.316406 86.460938 C 236.570312 86.121094 236.828125 85.785156 237.082031 85.453125 C 237.335938 85.128906 237.597656 84.808594 237.851562 84.496094 C 237.980469 84.335938 238.109375 84.179688 238.238281 84.027344 C 238.367188 83.875 238.496094 83.726562 238.625 83.578125 C 238.882812 83.28125 239.140625 82.988281 239.394531 82.703125 C 239.914062 82.144531 240.417969 81.597656 240.929688 81.097656 C 241.058594 80.972656 241.183594 80.851562 241.308594 80.726562 C 241.433594 80.605469 241.554688 80.484375 241.683594 80.367188 C 241.933594 80.136719 242.183594 79.90625 242.425781 79.6875 C 244.335938 77.9375 245.910156 76.714844 246.863281 75.992188 C 247.136719 75.785156 247.230469 75.503906 247.164062 75.222656 " fill-opacity="1" fill-rule="nonzero"/><g fill="#231f20" fill-opacity="1"><g transform="translate(221.548821, 250.352697)"><g><path d="M 3.421875 -26.90625 L -0.109375 -26.90625 L 2.046875 -34.0625 L 10.5625 -34.0625 L 10.5625 0 L 3.421875 0 Z M 3.421875 -26.90625 "/></g></g></g><g fill="#231f20" fill-opacity="1"><g transform="translate(235.487298, 250.352697)"><g><path d="M 21.390625 -4.265625 C 19.117188 -8.234375 14.515625 -12.226562 7.578125 -16.25 C 4.359375 -18.132812 2.75 -20.554688 2.75 -23.515625 C 2.75 -24.753906 2.972656 -25.945312 3.421875 -27.09375 C 3.878906 -28.25 4.566406 -29.273438 5.484375 -30.171875 C 6.367188 -31.035156 7.382812 -31.71875 8.53125 -32.21875 C 9.601562 -32.675781 10.78125 -32.90625 12.0625 -32.90625 C 13.34375 -32.90625 14.523438 -32.675781 15.609375 -32.21875 C 16.734375 -31.726562 17.75 -31.046875 18.65625 -30.171875 C 19.53125 -29.304688 20.203125 -28.300781 20.671875 -27.15625 C 21.148438 -26.019531 21.390625 -24.804688 21.390625 -23.515625 C 21.390625 -24.804688 21.625 -26.019531 22.09375 -27.15625 C 22.570312 -28.300781 23.253906 -29.304688 24.140625 -30.171875 C 25.035156 -31.046875 26.046875 -31.726562 27.171875 -32.21875 C 28.253906 -32.675781 29.4375 -32.90625 30.71875 -32.90625 C 32 -32.90625 33.175781 -32.675781 34.25 -32.21875 C 35.40625 -31.71875 36.421875 -31.035156 37.296875 -30.171875 C 38.210938 -29.273438 38.898438 -28.25 39.359375 -27.09375 C 39.816406 -25.945312 40.046875 -24.753906 40.046875 -23.515625 C 40.046875 -20.523438 38.429688 -18.101562 35.203125 -16.25 C 28.273438 -12.226562 23.671875 -8.234375 21.390625 -4.265625 Z M 21.390625 -4.265625 "/></g></g></g><g fill="#231f20" fill-opacity="1"><g transform="translate(278.267166, 250.352697)"><g/></g></g><g fill="#231f20" fill-opacity="1"><g transform="translate(95.522211, 311.090014)"><g><path d="M 28.546875 -2.75 C 26.835938 -1.664062 25.203125 -0.867188 23.640625 -0.359375 C 22.078125 0.148438 20.394531 0.40625 18.59375 0.40625 C 16.238281 0.40625 14.003906 -0.0507812 11.890625 -0.96875 C 9.785156 -1.882812 7.945312 -3.132812 6.375 -4.71875 C 4.8125 -6.300781 3.570312 -8.15625 2.65625 -10.28125 C 1.738281 -12.414062 1.28125 -14.675781 1.28125 -17.0625 C 1.28125 -19.4375 1.738281 -21.6875 2.65625 -23.8125 C 3.570312 -25.945312 4.8125 -27.796875 6.375 -29.359375 C 7.945312 -30.921875 9.785156 -32.160156 11.890625 -33.078125 C 14.003906 -34.003906 16.253906 -34.46875 18.640625 -34.46875 C 21.023438 -34.46875 23.28125 -34.015625 25.40625 -33.109375 C 27.53125 -32.210938 29.375 -30.972656 30.9375 -29.390625 C 32.507812 -27.804688 33.753906 -25.957031 34.671875 -23.84375 C 35.585938 -21.738281 36.046875 -19.492188 36.046875 -17.109375 C 36.046875 -15.234375 35.78125 -13.488281 35.25 -11.875 C 34.726562 -10.257812 33.90625 -8.582031 32.78125 -6.84375 L 35.234375 -4.296875 L 31.09375 -0.15625 Z M 20.421875 -11.234375 L 24.609375 -15.21875 L 27.578125 -12.15625 C 28.015625 -13.101562 28.316406 -13.953125 28.484375 -14.703125 C 28.660156 -15.453125 28.75 -16.253906 28.75 -17.109375 C 28.75 -18.535156 28.484375 -19.867188 27.953125 -21.109375 C 27.429688 -22.359375 26.707031 -23.441406 25.78125 -24.359375 C 24.863281 -25.273438 23.789062 -25.992188 22.5625 -26.515625 C 21.34375 -27.046875 20.035156 -27.3125 18.640625 -27.3125 C 17.242188 -27.3125 15.929688 -27.039062 14.703125 -26.5 C 13.484375 -25.957031 12.421875 -25.222656 11.515625 -24.296875 C 10.609375 -23.378906 9.890625 -22.289062 9.359375 -21.03125 C 8.835938 -19.78125 8.578125 -18.4375 8.578125 -17 C 8.578125 -15.601562 8.835938 -14.285156 9.359375 -13.046875 C 9.890625 -11.804688 10.609375 -10.71875 11.515625 -9.78125 C 12.421875 -8.84375 13.476562 -8.097656 14.6875 -7.546875 C 15.894531 -7.003906 17.175781 -6.734375 18.53125 -6.734375 C 19.457031 -6.734375 20.289062 -6.828125 21.03125 -7.015625 C 21.78125 -7.203125 22.566406 -7.535156 23.390625 -8.015625 Z M 20.421875 -11.234375 "/></g></g></g><g fill="#231f20" fill-opacity="1"><g transform="translate(132.799678, 311.090014)"><g><path d="M 18.53125 -34.0625 L 25.6875 -34.0625 L 25.6875 -11.390625 C 25.6875 -10.429688 25.632812 -9.566406 25.53125 -8.796875 C 25.425781 -8.035156 25.269531 -7.332031 25.0625 -6.6875 C 24.863281 -6.039062 24.582031 -5.425781 24.21875 -4.84375 C 23.863281 -4.269531 23.429688 -3.710938 22.921875 -3.171875 C 20.773438 -0.785156 17.9375 0.40625 14.40625 0.40625 C 10.863281 0.40625 7.984375 -0.816406 5.765625 -3.265625 C 5.253906 -3.847656 4.828125 -4.421875 4.484375 -4.984375 C 4.148438 -5.546875 3.878906 -6.140625 3.671875 -6.765625 C 3.472656 -7.390625 3.320312 -8.078125 3.21875 -8.828125 C 3.113281 -9.578125 3.0625 -10.429688 3.0625 -11.390625 L 3.0625 -26.90625 L -0.109375 -26.90625 L 1.984375 -34.0625 L 10.21875 -34.0625 L 10.21875 -10.875 C 10.21875 -9.582031 10.585938 -8.566406 11.328125 -7.828125 C 12.078125 -7.097656 13.117188 -6.734375 14.453125 -6.734375 C 15.742188 -6.734375 16.742188 -7.113281 17.453125 -7.875 C 18.171875 -8.644531 18.53125 -9.679688 18.53125 -10.984375 Z M 18.53125 -34.0625 "/></g></g></g><g fill="#231f20" fill-opacity="1"><g transform="translate(161.549288, 311.090014)"><g><path d="M 18.796875 -34.46875 C 21.171875 -34.46875 23.414062 -34.003906 25.53125 -33.078125 C 27.644531 -32.160156 29.472656 -30.898438 31.015625 -29.296875 C 32.566406 -27.703125 33.789062 -25.820312 34.6875 -23.65625 C 35.59375 -21.5 36.046875 -19.195312 36.046875 -16.75 C 36.046875 -14.4375 35.578125 -12.238281 34.640625 -10.15625 C 33.703125 -8.082031 32.441406 -6.257812 30.859375 -4.6875 C 29.285156 -3.125 27.441406 -1.882812 25.328125 -0.96875 C 23.210938 -0.0507812 20.984375 0.40625 18.640625 0.40625 C 16.253906 0.40625 14.003906 -0.0507812 11.890625 -0.96875 C 9.785156 -1.882812 7.945312 -3.132812 6.375 -4.71875 C 4.8125 -6.300781 3.570312 -8.144531 2.65625 -10.25 C 1.738281 -12.363281 1.28125 -14.632812 1.28125 -17.0625 C 1.28125 -19.476562 1.726562 -21.75 2.625 -23.875 C 3.53125 -26 4.773438 -27.84375 6.359375 -29.40625 C 7.941406 -30.976562 9.796875 -32.210938 11.921875 -33.109375 C 14.046875 -34.015625 16.335938 -34.46875 18.796875 -34.46875 Z M 18.6875 -27.3125 C 17.289062 -27.3125 15.976562 -27.046875 14.75 -26.515625 C 13.53125 -25.992188 12.457031 -25.265625 11.53125 -24.328125 C 10.613281 -23.390625 9.890625 -22.289062 9.359375 -21.03125 C 8.835938 -19.78125 8.578125 -18.4375 8.578125 -17 C 8.578125 -15.570312 8.835938 -14.234375 9.359375 -12.984375 C 9.890625 -11.742188 10.613281 -10.664062 11.53125 -9.75 C 12.457031 -8.832031 13.523438 -8.097656 14.734375 -7.546875 C 15.941406 -7.003906 17.242188 -6.734375 18.640625 -6.734375 C 20.003906 -6.734375 21.289062 -7.003906 22.5 -7.546875 C 23.707031 -8.097656 24.769531 -8.832031 25.6875 -9.75 C 26.601562 -10.664062 27.332031 -11.738281 27.875 -12.96875 C 28.425781 -14.195312 28.703125 -15.488281 28.703125 -16.84375 C 28.703125 -18.3125 28.4375 -19.675781 27.90625 -20.9375 C 27.375 -22.195312 26.65625 -23.300781 25.75 -24.25 C 24.851562 -25.207031 23.800781 -25.957031 22.59375 -26.5 C 21.382812 -27.039062 20.082031 -27.3125 18.6875 -27.3125 Z M 18.6875 -27.3125 "/></g></g></g><g fill="#231f20" fill-opacity="1"><g transform="translate(198.826755, 311.090014)"><g><path d="M 6.890625 -26.90625 L 0.15625 -26.90625 L 2.25 -34.0625 L 15.78125 -34.0625 L 16.140625 -35.234375 L 22.625 -35.234375 L 20.125 -26.90625 L 13.984375 -26.90625 L 13.984375 0 L 6.890625 0 Z M 6.890625 -26.90625 "/></g></g></g><g fill="#231f20" fill-opacity="1"><g transform="translate(221.49963, 311.090014)"><g><path d="M 3.421875 -26.90625 L 0.25 -26.90625 L 2.40625 -34.0625 L 17.0625 -34.0625 L 17.40625 -35.234375 L 23.890625 -35.234375 L 21.390625 -26.90625 L 10.515625 -26.90625 L 10.515625 -20.9375 L 22.5625 -20.9375 L 20.421875 -13.84375 L 10.515625 -13.84375 L 10.515625 -7.203125 L 22.5625 -7.203125 L 20.421875 0 L 3.421875 0 Z M 3.421875 -26.90625 "/></g></g></g><g fill="#231f20" fill-opacity="1"><g transform="translate(246.419358, 311.090014)"><g><path d="M 2.546875 -10.109375 C 4.253906 -8.953125 5.703125 -8.148438 6.890625 -7.703125 C 8.085938 -7.265625 9.3125 -7.046875 10.5625 -7.046875 C 11.925781 -7.046875 13.039062 -7.351562 13.90625 -7.96875 C 14.78125 -8.582031 15.21875 -9.378906 15.21875 -10.359375 C 15.21875 -11.179688 14.910156 -11.878906 14.296875 -12.453125 C 13.679688 -13.035156 12.59375 -13.664062 11.03125 -14.34375 C 9.15625 -15.164062 7.671875 -15.890625 6.578125 -16.515625 C 5.492188 -17.148438 4.613281 -17.804688 3.9375 -18.484375 C 3.050781 -19.367188 2.367188 -20.363281 1.890625 -21.46875 C 1.410156 -22.570312 1.171875 -23.722656 1.171875 -24.921875 C 1.171875 -26.242188 1.425781 -27.472656 1.9375 -28.609375 C 2.445312 -29.753906 3.148438 -30.742188 4.046875 -31.578125 C 4.953125 -32.410156 6.007812 -33.066406 7.21875 -33.546875 C 8.425781 -34.023438 9.75 -34.265625 11.1875 -34.265625 C 11.894531 -34.265625 12.535156 -34.210938 13.109375 -34.109375 C 13.691406 -34.003906 14.460938 -33.800781 15.421875 -33.5 L 15.828125 -34.875 L 21.90625 -33.453125 L 19.453125 -25.125 C 16.285156 -26.925781 13.597656 -27.828125 11.390625 -27.828125 C 10.535156 -27.828125 9.828125 -27.585938 9.265625 -27.109375 C 8.703125 -26.640625 8.421875 -26.046875 8.421875 -25.328125 C 8.421875 -24.609375 8.707031 -23.976562 9.28125 -23.4375 C 9.863281 -22.894531 10.941406 -22.265625 12.515625 -21.546875 C 15.878906 -20.085938 18.207031 -18.773438 19.5 -17.609375 C 21.582031 -15.804688 22.625 -13.507812 22.625 -10.71875 C 22.625 -9.1875 22.316406 -7.753906 21.703125 -6.421875 C 21.085938 -5.097656 20.25 -3.953125 19.1875 -2.984375 C 18.132812 -2.015625 16.882812 -1.25 15.4375 -0.6875 C 14 -0.125 12.445312 0.15625 10.78125 0.15625 C 9.101562 0.15625 7.3125 -0.125 5.40625 -0.6875 C 3.5 -1.25 1.734375 -2.007812 0.109375 -2.96875 Z M 2.546875 -10.109375 "/></g></g></g></svg>